<svg xmlns="http://www.w3.org/2000/svg" width="802.4" height="343.97" viewBox="0 0 802.4 343.97">
  <g id="a34ee19a-9a2e-441d-b978-6c96bea3f40b" data-name="Layer 2">
    <g id="fe99db7d-6fbf-4e09-95ed-ce2eed15cccf" data-name="Layer 1">
      <g>
        <path d="M521,28c-1.37-4.47-5.88-4.79-9.73-5.32-11.89-1.62-23.78-.62-35.65.5C460.26,24.6,445,27,429.83,29.5c-1.8.29-3.5,1.09-4.86-1.63-1.24-2.48-3.73-1.88-4.67.7-.65,1.78-1.3,3-3.24,3.32-3.31.57-6.62,1.17-9.89,2-2.24.54-3-.17-3.06-2.45-.15-4.38-.5-8.75-.83-13.12-.38-4.94-.5-9.89-1.52-14.77-.47-2.23-1.43-3.77-3.88-3.49s-3,2.22-2.87,4.4c.06,1.13.12,2.25.2,3.38.53,8.34,1,16.67,1.64,25,.21,2.58-.48,3.83-3.1,4.47-4.62,1.15-9.17,2.57-13.69,4.08-9.18,3-18.41,6-26.74,11.16-1.48.92-4.09,2.18-2.23,4.48,1.67,2.05,4.05,1.58,5.83-.44a11.11,11.11,0,0,1,3.66-2.8c10.81-5.14,22.12-8.88,33.57-12.23,2.21-.65,3.34-.33,3.38,2.41.12,6.5.58,13,.77,19.5.89,30.71.29,61.4-.55,92.1-.38,13.87-1,27.71-2.6,41.49-.24,2.05-.21,4,2,5.08a5,5,0,0,0,6.16-1.14,30.52,30.52,0,0,0,3.45-4.79c3.6-5.73,7.11-11.53,10.73-17.26.51-.81.7-2.25,2.72-1.91,0,3.36,0,6.75,0,10.13,0,1.84.92,3,2.85,2.89s2.24-1.41,2.35-2.93c.13-1.84.61-3.74.3-5.5-2.17-12.34,3.58-21.31,11.59-29.67,10-10.44,20.28-20.42,34.85-24.12,1-.26,2.49-.53,2.38-2-.13-1.58-1.65-1.89-2.9-1.83a31.41,31.41,0,0,0-11.39,2.63c-11.59,5.06-20.79,13.22-29.13,22.55-1.47,1.64-2.88,3.34-4.83,5.62a19.77,19.77,0,0,1-.39-2.3q0-57.3-.09-114.61c0-3,1.25-3.82,3.89-4.27,15.2-2.64,30.46-4.73,45.77-6.53a220.68,220.68,0,0,1,31.9-1c2.32.07,5.21,0,6.25,2.6s-1.13,4.48-2.79,6.13c-7.07,7-15.2,12-25.17,13.54a36.73,36.73,0,0,0-4.54.87c-1,.27-2.51.54-2.21,2s1.77,1.2,2.84,1.08c12.78-1.48,24.72-5.15,34.36-14.27C519,35.4,522.34,32.41,521,28ZM416.91,167.48c-4.09,5.67-7.84,11.59-11.68,17.35,0-10.16-.24-20,0-29.89,1-37.19,2-74.38-.47-111.55-.25-3.9,1-5.06,4.57-5.79,10.58-2.18,10.55-2.34,10.55,8.46q0,55.82.09,111.62A15.74,15.74,0,0,1,416.91,167.48Z" transform="translate(-10.3)" fill="#f6efe5"/>
        <g>
          <path d="M10.3,300V230.64h9.8v60.7H57.27V300Z" transform="translate(-10.3)" fill="#f6efe5"/>
          <path d="M68.55,300V230.64H117v8.62H78.36v52.08h40V300Zm8.92-31v-8.41h35.31V269Z" transform="translate(-10.3)" fill="#f6efe5"/>
          <path d="M147.89,300V239.26H124.35v-8.62h56.78v8.62H157.6V300Z" transform="translate(-10.3)" fill="#f6efe5"/>
          <path d="M189.37,225l13.34-12.87h12L198.2,225ZM191.82,300V230.64h9.81V300Z" transform="translate(-10.3)" fill="#f6efe5"/>
          <path d="M252.92,300.75a38.86,38.86,0,0,1-14.46-2.63A33.86,33.86,0,0,1,227,290.7a35,35,0,0,1-7.6-11.24,38,38,0,0,1,0-28.32,34.27,34.27,0,0,1,19.17-18.66,40.92,40.92,0,0,1,29.13.1,30,30,0,0,1,11.43,8.06l-6.38,6.24a25.56,25.56,0,0,0-8.83-6.19,27.19,27.19,0,0,0-10.49-2,28.85,28.85,0,0,0-10.74,2,25.85,25.85,0,0,0-8.58,5.55,25.05,25.05,0,0,0-5.64,8.47,29.17,29.17,0,0,0,0,21.28,25.05,25.05,0,0,0,5.64,8.47,25.67,25.67,0,0,0,8.58,5.54,28.65,28.65,0,0,0,10.74,2,27,27,0,0,0,10.49-2,24.8,24.8,0,0,0,8.83-6.28l6.38,6.23A30.38,30.38,0,0,1,267.68,298,38.31,38.31,0,0,1,252.92,300.75Z" transform="translate(-10.3)" fill="#f6efe5"/>
          <path d="M292.15,300V230.64H302V300Z" transform="translate(-10.3)" fill="#f6efe5"/>
          <path d="M312.15,300l31.09-69.31H353L384.14,300h-10.3l-27.75-63.76H350L322.26,300Zm13.24-17.32,2.65-7.92h38.64l2.85,7.92Z" transform="translate(-10.3)" fill="#f6efe5"/>
          <path d="M434.35,300V239.26H410.81v-8.62H467.6v8.62H444.06V300Z" transform="translate(-10.3)" fill="#f6efe5"/>
          <path d="M508.29,300.75a38.87,38.87,0,0,1-14.56-2.68,34.33,34.33,0,0,1-19.27-18.71,37.32,37.32,0,0,1,0-28.12,34.45,34.45,0,0,1,19.22-18.71,38.8,38.8,0,0,1,14.61-2.68,39.33,39.33,0,0,1,14.52,2.63,34.34,34.34,0,0,1,11.57,7.42,33.81,33.81,0,0,1,7.6,11.29,38.35,38.35,0,0,1,0,28.27,33.91,33.91,0,0,1-7.6,11.24,34.34,34.34,0,0,1-11.57,7.42A39.33,39.33,0,0,1,508.29,300.75Zm-.09-8.82a28,28,0,0,0,10.64-2,25.1,25.1,0,0,0,8.43-5.59,26,26,0,0,0,5.59-8.47,27.37,27.37,0,0,0,2-10.59,27.09,27.09,0,0,0-2-10.55,26.71,26.71,0,0,0-5.59-8.46,25,25,0,0,0-8.43-5.65,28.14,28.14,0,0,0-10.64-2,27.86,27.86,0,0,0-10.55,2,25.47,25.47,0,0,0-8.48,5.65,26.35,26.35,0,0,0-5.64,8.46,27.09,27.09,0,0,0-2,10.55,27.37,27.37,0,0,0,2,10.59A25.55,25.55,0,0,0,497.65,290,27.67,27.67,0,0,0,508.2,291.93Z" transform="translate(-10.3)" fill="#f6efe5"/>
          <path d="M559.68,300V230.64h8L598.52,283H594.2l30.4-52.38h8l.1,69.31h-9.42l-.1-54.35h2.26l-27.07,45.94h-4.51L566.65,245.6h2.45V300Z" transform="translate(-10.3)" fill="#f6efe5"/>
          <path d="M653.34,300V230.64h9.81V300Z" transform="translate(-10.3)" fill="#f6efe5"/>
          <path d="M714.44,300.75A38.88,38.88,0,0,1,700,298.12a33.82,33.82,0,0,1-11.47-7.42,34.83,34.83,0,0,1-7.6-11.24,37.83,37.83,0,0,1,0-28.32,34.27,34.27,0,0,1,19.17-18.66,40.92,40.92,0,0,1,29.13.1,30.06,30.06,0,0,1,11.42,8.06l-6.37,6.24a25.65,25.65,0,0,0-8.83-6.19,27.23,27.23,0,0,0-10.49-2,28.85,28.85,0,0,0-10.74,2,25.75,25.75,0,0,0-8.58,5.55,25.05,25.05,0,0,0-5.64,8.47,29.17,29.17,0,0,0,0,21.28,25.05,25.05,0,0,0,5.64,8.47,25.57,25.57,0,0,0,8.58,5.54,28.65,28.65,0,0,0,10.74,2,27,27,0,0,0,10.49-2,24.88,24.88,0,0,0,8.83-6.28l6.37,6.23A30.42,30.42,0,0,1,729.2,298,38.31,38.31,0,0,1,714.44,300.75Z" transform="translate(-10.3)" fill="#f6efe5"/>
          <path d="M753.66,300V230.64h9.81V300Zm8.83-30.89v-8.61h41.29v8.61ZM802.9,300V230.64h9.8V300Z" transform="translate(-10.3)" fill="#f6efe5"/>
        </g>
        <g>
          <path d="M326.06,343.85l9-14.13h2l9,14.13h-2.19l-8.23-13.26h.84l-8.24,13.26Zm3.52-3.77.62-1.21h11.4l.62,1.21Z" transform="translate(-10.3)" fill="#f6efe5"/>
          <path d="M349.28,343.85V329.72h8a15.43,15.43,0,0,1,5.5.9,8.67,8.67,0,0,1,3.69,2.49,5.81,5.81,0,0,1,0,7.35,8.59,8.59,0,0,1-3.69,2.5,15.66,15.66,0,0,1-5.5.89Zm2.07-1.29h5.8a12.41,12.41,0,0,0,4.52-.74,7,7,0,0,0,3-2,4.75,4.75,0,0,0,0-6,7,7,0,0,0-3-2,12.63,12.63,0,0,0-4.52-.74h-5.8Z" transform="translate(-10.3)" fill="#f6efe5"/>
          <path d="M377.43,343.85l-8.69-14.13H371L379.11,343h-1.24l8.18-13.31h2.1l-8.68,14.13Z" transform="translate(-10.3)" fill="#f6efe5"/>
          <path d="M399.41,344a14.9,14.9,0,0,1-4.1-.53,10.89,10.89,0,0,1-3.28-1.51,7.51,7.51,0,0,1-2.15-2.29,5.68,5.68,0,0,1,0-5.71,7.37,7.37,0,0,1,2.15-2.28,10.84,10.84,0,0,1,3.27-1.52,16.12,16.12,0,0,1,8.2,0,10.94,10.94,0,0,1,3.27,1.51,7.15,7.15,0,0,1,2.15,2.28,5.72,5.72,0,0,1,0,5.73,7.29,7.29,0,0,1-2.15,2.29,11.18,11.18,0,0,1-3.27,1.5A14.72,14.72,0,0,1,399.41,344Zm0-1.33a11.71,11.71,0,0,0,3.27-.43,8.57,8.57,0,0,0,2.6-1.23,5.93,5.93,0,0,0,1.72-1.86,4.59,4.59,0,0,0,.62-2.33,4.54,4.54,0,0,0-.62-2.33,5.93,5.93,0,0,0-1.72-1.86,8.57,8.57,0,0,0-2.6-1.23,12.37,12.37,0,0,0-6.54,0,8.69,8.69,0,0,0-2.64,1.23,6,6,0,0,0-1.73,1.86,4.67,4.67,0,0,0,0,4.65A6,6,0,0,0,393.5,341a8.69,8.69,0,0,0,2.64,1.23A11.76,11.76,0,0,0,399.41,342.64Z" transform="translate(-10.3)" fill="#f6efe5"/>
          <path d="M422.94,344a15,15,0,0,1-4.13-.53,11.12,11.12,0,0,1-3.28-1.5,7.29,7.29,0,0,1-2.15-2.29,5.72,5.72,0,0,1,0-5.73,7,7,0,0,1,2.17-2.28,11,11,0,0,1,3.29-1.51,15.41,15.41,0,0,1,4.13-.53,15.94,15.94,0,0,1,4.1.5,8.9,8.9,0,0,1,3.18,1.54l-1.29.95a7.93,7.93,0,0,0-2.71-1.27,12.58,12.58,0,0,0-3.2-.39,12.11,12.11,0,0,0-3.34.44A8.87,8.87,0,0,0,417,332.6a6.08,6.08,0,0,0-1.76,1.86,4.61,4.61,0,0,0,0,4.65A6.11,6.11,0,0,0,417,341a8.87,8.87,0,0,0,2.67,1.23,12,12,0,0,0,3.31.43,13.47,13.47,0,0,0,3.18-.36,8.17,8.17,0,0,0,2.76-1.23l1.18,1.13a10.8,10.8,0,0,1-3.28,1.34A16.76,16.76,0,0,1,422.94,344Zm7.2-1.79-2-.18v-5.21h2Z" transform="translate(-10.3)" fill="#f6efe5"/>
          <path d="M432.86,343.85l9-14.13h2l9,14.13h-2.19l-8.23-13.26h.84L435,343.85Zm3.53-3.77.61-1.21h11.4l.62,1.21Z" transform="translate(-10.3)" fill="#f6efe5"/>
          <path d="M456.08,343.85V329.72h8a15.43,15.43,0,0,1,5.5.9,8.67,8.67,0,0,1,3.69,2.49,5.81,5.81,0,0,1,0,7.35,8.59,8.59,0,0,1-3.69,2.5,15.66,15.66,0,0,1-5.5.89Zm2.07-1.29H464a12.41,12.41,0,0,0,4.52-.74,7,7,0,0,0,3-2,4.75,4.75,0,0,0,0-6,7,7,0,0,0-3-2A12.63,12.63,0,0,0,464,331h-5.8Z" transform="translate(-10.3)" fill="#f6efe5"/>
          <path d="M475.8,343.85l9-14.13h2l9,14.13h-2.19l-8.23-13.26h.84L478,343.85Zm3.52-3.77.62-1.21h11.4l.62,1.21Z" transform="translate(-10.3)" fill="#f6efe5"/>
        </g>
      </g>
    </g>
  </g>
</svg>
